# xmcd CD database file
#
# Track frame offsets:
#	150
#	14302
#	29377
#	43827
#	59087
#	72565
#	85845
#	99562
#	113037
#	127587
#	141240
#	154820
#	167570
#	181107
#	194250
#	208512
#	220877
#	233710
#
# Disc length: 3293 seconds
#
# Revision: 5
# Processed by: cddbd v1.5.2PL0 Copyright (c) Steve Scherf et al.
# Submitted via: CDex 1.99.1
#
DISCID=f90cdb12
DTITLE=Bessie Smith - Bessie Smith Empress of the Blues_  The Complete Recordings [Volume 3 Disc 2]
DYEAR=1992
DGENRE=Blues
TTITLE0=Muddy Water (A Mississippi Moan)
TTITLE1=There'll Be a Hot Time in the Old Town Tonight
TTITLE2=Trombone Cholly
TTITLE3=Send Me to the 'Lectric Chair
TTITLE4=Them's Graveyard Words
TTITLE5=Hot Spring Blues
TTITLE6=Sweet Mistreater
TTITLE7=Lock and Key
TTITLE8=Mean Old Bedbug Blues
TTITLE9=A Good Man is Hard to Find
TTITLE10=Homeless Blues
TTITLE11=Looking for My Man Blues
TTITLE12=Dyin' By the Hour
TTITLE13=Foolish Man Blues
TTITLE14=Thinking Blues
TTITLE15=Pickpocket Blues
TTITLE16=I Used to Be Your Sweet Mama
TTITLE17=I'd Rather Be Dead and Buried in My Grave
EXTD=YEAR: 1992
EXTT0=
EXTT1=
EXTT2=
EXTT3=
EXTT4=
EXTT5=
EXTT6=
EXTT7=
EXTT8=
EXTT9=
EXTT10=
EXTT11=
EXTT12=
EXTT13=
EXTT14=
EXTT15=
EXTT16=
EXTT17=
PLAYORDER=
